<svg width="547" height="547" viewBox="0 0 547 547" fill="none" xmlns="http://www.w3.org/2000/svg">
<path d="M385.271 147.996C395.65 171.984 405.655 195.731 415.844 219.399C423.633 237.493 431.723 255.458 439.549 273.536C445.334 286.896 450.867 300.365 456.589 313.753C463.742 330.49 471 347.182 478.162 363.915C483.441 376.248 488.639 388.617 494.086 401.475C489.802 401.475 486.085 401.475 482.794 401.475C479.787 397.141 477.118 392.609 473.794 388.625C462.169 374.693 448.016 363.696 432.133 355.142C421.141 349.221 409.873 343.531 398.167 339.285C382.684 333.668 366.71 329.358 350.836 324.882C340.472 321.959 329.934 319.631 319.428 317.241C312.204 315.597 304.914 314.227 297.614 312.966C296.865 312.837 295.457 314.11 295.006 315.046C291.119 323.102 287.464 331.269 283.585 339.329C274.944 357.283 263.553 372.93 247.301 385.01C237.335 392.418 226.684 398.139 214.953 401.746C201.272 405.954 187.16 407.84 172.855 406.477C155.927 404.865 139.555 400.913 124.438 392.791C114.128 387.252 104.625 380.663 95.8454 372.773C78.1807 356.9 66.4015 337.314 58.9814 315.173C55.8848 305.933 54.6145 295.905 53.7933 286.128C52.9313 275.864 52.5176 265.324 53.8927 255.174C55.4145 243.941 58.0234 232.545 62.2417 222.058C69.0918 205.029 78.9345 189.542 92.31 176.626C109.895 159.646 130.374 147.824 154.439 142.939C162.867 141.228 171.598 139.743 180.126 140.037C201.544 140.776 222.513 143.831 242.236 153.511C253.457 159.018 263.963 165.043 272.55 174.323C269.68 177.089 266.82 179.846 264.866 181.729C256.327 174.477 248.179 166.631 239.098 160.079C227.635 151.808 214.375 147.135 200.421 144.907C193.334 143.775 186.081 142.697 178.955 142.968C154.027 143.919 131.791 152.022 112.424 168.277C101.608 177.355 92.5686 187.786 85.4416 199.708C76.7672 214.218 70.3923 229.842 67.6589 246.68C66.6414 252.948 66.2152 259.316 65.6122 265.648C64.195 280.526 65.9178 295.256 69.8148 309.49C73.7074 323.708 79.5385 337.372 88.6064 349.248C94.5399 357.018 100.444 364.944 107.334 371.824C121.854 386.323 139.113 396.782 159.187 401.491C173.125 404.761 187.28 404.563 201.609 402.061C217.704 399.25 232.217 393.102 245.026 383.519C262.554 370.405 275.44 353.364 283.666 332.909C285.878 327.407 288.674 322.14 291.16 316.746C291.811 315.334 292.305 313.849 292.925 312.26C279.618 309.632 266.797 307.089 253.971 304.568C244.153 302.639 234.264 301.022 224.529 298.743C214.693 296.441 204.903 293.819 195.28 290.75C182.461 286.661 169.912 281.938 158.8 273.922C150.712 268.088 143.396 261.637 139.867 252.168C137.86 246.783 137.274 240.869 137.21 235.014C141.096 240.209 144.493 245.882 148.996 250.472C154.25 255.829 160.058 260.88 166.352 264.935C182.122 275.094 199.449 281.796 217.769 285.845C237.564 290.22 257.374 294.526 277.185 298.826C282.549 299.99 288.072 300.612 293.272 302.266C296.671 303.347 298.05 302.385 299.316 299.573C306.154 284.38 313.012 269.196 319.952 254.049C324.822 243.418 329.875 232.871 334.773 222.253C341.897 206.806 348.929 191.316 356.053 175.869C360.403 166.438 364.879 157.065 369.244 147.641C371.548 142.667 376.113 144.227 379.971 143.86C382.695 143.601 384.648 144.699 385.271 147.996ZM387.106 181.828C382.45 171.07 377.794 160.312 373.139 149.555C372.653 149.548 372.168 149.541 371.682 149.534C348.066 200.685 324.449 251.836 300.736 303.196C305.282 304.27 308.549 305.139 311.856 305.807C322.764 308.008 333.788 309.729 344.579 312.395C358.424 315.814 372.311 319.323 385.767 323.984C400.231 328.995 414.643 334.54 428.292 341.412C441.602 348.115 453.664 357.096 463.233 368.919C465.391 371.586 467.844 374.013 470.923 377.386C470.518 375.473 470.481 374.653 470.175 373.95C465.665 363.568 461.083 353.217 456.59 342.828C450.174 327.994 443.828 313.13 437.432 298.288C430.158 281.408 422.908 264.516 415.555 247.67C411.467 238.304 407.054 229.08 403.034 219.686C397.75 207.338 392.71 194.886 387.106 181.828Z" fill="url(#paint0_linear_1826_396)"/>
<defs>
<linearGradient id="paint0_linear_1826_396" x1="53" y1="140" x2="494" y2="407" gradientUnits="userSpaceOnUse">
<stop stop-color="#CEC2A2"/>
<stop offset="1" stop-color="#B29087"/>
</linearGradient>
</defs>
</svg>
