<?xml version="1.0" encoding="UTF-8"?>
<svg version="1.1" xmlns="http://www.w3.org/2000/svg" width="4000" height="4000">
<path d="M0 0 C1320 0 2640 0 4000 0 C4000 1320 4000 2640 4000 4000 C2680 4000 1360 4000 0 4000 C0 2680 0 1360 0 0 Z " fill="#FEFEFE" transform="translate(0,0)"/>
<path d="M0 0 C3.30417473 0.00463727 6.60798176 -0.00234073 9.91210938 -0.02050781 C31.97617148 -0.14045806 53.59953547 0.74623284 75.52124023 3.31567383 C76.47805695 3.42507294 77.43487366 3.53447205 78.42068481 3.64718628 C83.73510934 4.26081935 89.0358794 4.94838112 94.33374023 5.69067383 C95.09464966 5.79550079 95.85555908 5.90032776 96.63952637 6.0083313 C131.57774634 10.83663799 165.39780492 18.78657883 198.83374023 29.94067383 C199.99386627 30.32751343 199.99386627 30.32751343 201.1774292 30.72216797 C249.09826248 46.75910642 294.9171966 68.49209315 336.52124023 97.31567383 C337.29274414 97.84515625 338.06424805 98.37463867 338.85913086 98.92016602 C360.23053425 113.59541707 379.92582813 129.79945216 399.13842773 147.19067383 C401.12970277 148.96649943 403.15132287 150.68057385 405.20874023 152.37817383 C408.26902152 154.97905954 410.78838232 157.86574692 413.38061523 160.92504883 C416.09596487 163.95751959 418.9909819 166.77908188 421.89624023 169.62817383 C426.69807466 174.36520156 431.1190297 179.24180432 435.31420898 184.53442383 C437.82569981 187.69934677 440.41790135 190.78882879 443.02124023 193.87817383 C447.59020901 199.30029882 448.67758204 201.83561731 448.68701172 208.83666992 C448.6909878 209.63576405 448.69496387 210.43485817 448.69906044 211.25816727 C448.70853901 213.99352526 448.70778828 216.72873935 448.70483398 219.46411133 C448.70477293 220.43186871 448.70471188 221.39962608 448.70464897 222.39670944 C448.67665308 251.88614869 447.68404154 281.36280684 446.79625452 310.83607554 C446.58090175 317.99905675 446.37406514 325.16227254 446.16797733 332.32552528 C445.9676927 339.28444179 445.7635754 346.24324521 445.55889201 353.20203352 C445.49480471 355.3862817 445.43123675 357.57054451 445.36775398 359.75481033 C444.92461614 374.95225576 444.43365734 390.13809236 443.52124023 405.31567383 C441.15386105 402.2480294 439.49089904 399.33226038 437.91186523 395.78442383 C437.41267578 394.67848877 436.91348633 393.57255371 436.39916992 392.43310547 C435.86195312 391.23935303 435.32473633 390.04560059 434.77124023 388.81567383 C404.10201384 321.60973109 361.18851714 258.17051186 311.54858398 203.55786133 C309.78156824 201.60358958 308.05210494 199.62507645 306.33374023 197.62817383 C295.12659332 184.78665133 283.37188378 172.01498197 270.38061523 160.95629883 C267.71110327 158.60084709 265.24317013 156.06338693 262.77124023 153.50317383 C244.03491974 135.28730668 222.41776317 119.27893514 200.73168945 104.7956543 C198.67570263 103.41909232 196.63009803 102.02861479 194.58764648 100.63208008 C186.16412481 94.89870064 177.5252138 89.61287253 168.68188477 84.55249023 C167.26905838 83.74374691 165.85847068 82.93107683 164.45043945 82.11401367 C142.73501674 69.5278268 119.9700982 59.20981072 96.52124023 50.31567383 C95.02657227 49.7360791 95.02657227 49.7360791 93.50170898 49.14477539 C76.17711146 42.44300988 58.57468282 37.56263643 40.52124023 33.31567383 C39.61132324 33.10072266 38.70140625 32.88577148 37.76391602 32.66430664 C23.20555219 29.30671257 8.33441219 27.4268747 -6.45141602 25.36645508 C-7.73282471 25.18767822 -9.0142334 25.00890137 -10.33447266 24.82470703 C-19.82959404 23.61592885 -29.1850692 23.16631704 -38.75610352 23.18286133 C-40.62595665 23.18142624 -40.62595665 23.18142624 -42.53358459 23.17996216 C-45.1615504 23.17928495 -47.78951792 23.18110703 -50.41748047 23.18530273 C-54.37349356 23.19061639 -58.32939098 23.18536317 -62.28540039 23.17895508 C-81.30390043 23.17252589 -100.16344279 23.44400548 -119.04125977 25.94067383 C-120.97316162 26.19300781 -120.97316162 26.19300781 -122.9440918 26.45043945 C-210.41891945 38.2863402 -292.38728299 71.81924136 -374.07250977 139.12036133 C-375.41560218 140.34571512 -376.76715585 141.56249095 -378.1484375 142.74462891 C-383.71553101 147.51470433 -388.92723846 152.61094062 -394.09716797 157.80371094 C-395.53901198 159.25091768 -396.98613092 160.69269409 -398.43383789 162.1340332 C-403.66173941 167.35779346 -408.69369006 172.6832718 -413.47875977 178.31567383 C-414.4633288 179.44554659 -415.44897348 180.5744831 -416.43579102 181.70239258 C-422.57280077 188.77614838 -428.48261285 195.96625572 -434.09350586 203.46655273 C-435.06900455 204.76870766 -436.04890882 206.06756798 -437.03198242 207.36401367 C-476.58708648 259.55526258 -505.3590291 318.51221508 -526.47875977 380.31567383 C-526.85742188 381.4189502 -527.23608398 382.52222656 -527.6262207 383.65893555 C-537.09160281 411.4763226 -544.31213885 439.88787825 -550.35375977 468.62817383 C-550.53503418 469.4850882 -550.71630859 470.34200256 -550.90307617 471.22488403 C-562.76096426 527.63884097 -567.75257053 585.55180203 -567.72875977 643.12817383 C-567.72862633 643.82733791 -567.72849289 644.526502 -567.72835541 645.24685287 C-567.71502455 670.10286785 -566.79348501 694.73938154 -564.66625977 719.50317383 C-564.57983215 720.52216766 -564.49340454 721.5411615 -564.40435791 722.59103394 C-563.11653244 737.64928592 -561.45980456 752.54158098 -558.94360352 767.44848633 C-558.42626893 770.6394408 -557.97746213 773.83636926 -557.53344727 777.03833008 C-556.43806492 784.78696951 -555.12461419 792.49152355 -553.72875977 800.19067383 C-553.53467529 801.26217178 -553.53467529 801.26217178 -553.33666992 802.35531616 C-549.68213134 822.38767386 -544.52243136 841.87840287 -538.47875977 861.31567383 C-537.79119716 863.5656547 -537.10368963 865.8156524 -536.41625977 868.06567383 C-535.77050914 870.1490328 -535.12466294 872.23236215 -534.47875977 874.31567383 C-534.1184668 875.48791504 -533.75817383 876.66015625 -533.38696289 877.86791992 C-516.08177217 933.96268174 -492.45184058 988.81326858 -463.03149414 1039.62036133 C-461.51141244 1042.25899371 -460.0147752 1044.90947673 -458.52563477 1047.56567383 C-439.85147346 1080.79749793 -418.346821 1112.22357035 -395.0090332 1142.34008789 C-393.55956337 1144.21135622 -392.11660195 1146.08749181 -390.67407227 1147.96411133 C-384.42329145 1156.05216436 -377.82326608 1163.78846057 -371.08422852 1171.47192383 C-369.03719034 1173.82278033 -367.0244724 1176.20158618 -365.01171875 1178.58178711 C-353.67592907 1191.94834503 -341.47509709 1204.4136077 -329.10375977 1216.81567383 C-328.49193848 1217.43017395 -327.88011719 1218.04467407 -327.24975586 1218.67779541 C-320.835987 1225.11283749 -314.41624643 1231.43996104 -307.47875977 1237.31567383 C-305.87107604 1238.770129 -304.26636262 1240.22788278 -302.66625977 1241.69067383 C-298.32446956 1245.60822805 -293.85802506 1249.33504049 -289.31079102 1253.01098633 C-286.43931861 1255.34777077 -283.6160746 1257.73529955 -280.79125977 1260.12817383 C-273.5723147 1266.15174377 -266.05421402 1271.75092942 -258.47875977 1277.31567383 C-257.6330542 1277.94143311 -257.6330542 1277.94143311 -256.77026367 1278.57983398 C-215.32268007 1309.18015032 -169.19112912 1334.44632363 -120.47875977 1351.31567383 C-119.30120117 1351.72414551 -118.12364258 1352.13261719 -116.91040039 1352.5534668 C-97.99874061 1359.03992049 -79.05048694 1364.18532653 -59.47875977 1368.31567383 C-58.20911377 1368.58782715 -58.20911377 1368.58782715 -56.91381836 1368.86547852 C-46.51772177 1371.06775274 -36.04405072 1372.27626442 -25.47875977 1373.31567383 C-25.30180573 1372.75965988 -25.12485168 1372.20364594 -24.9425354 1371.63078308 C-23.23426329 1366.3710154 -21.29452629 1361.29983636 -19.06469727 1356.24145508 C-18.57472008 1355.11766701 -18.57472008 1355.11766701 -18.07484436 1353.97117615 C-17.00528448 1351.52167573 -15.92979187 1349.07483725 -14.85375977 1346.62817383 C-14.09329297 1344.89222883 -13.3329601 1343.15622515 -12.57275391 1341.42016602 C0.16705118 1312.36471568 13.20989003 1283.44743495 26.46142578 1254.62213135 C27.56244354 1252.22600372 28.66209767 1249.82925392 29.76147461 1247.43237305 C37.67690617 1230.17846136 45.62004728 1212.94603524 53.91625977 1195.87109375 C57.02988793 1189.45307769 60.05966431 1183.00370443 63.03027344 1176.51831055 C69.79585166 1161.75376251 77.00198771 1147.23628387 84.29907227 1132.72851562 C88.6022256 1124.1703168 92.87609391 1115.60699192 96.95874023 1106.94067383 C102.17077475 1095.90159969 107.62878736 1084.98606276 113.08374023 1074.06567383 C113.5256369 1073.17938293 113.96753357 1072.29309204 114.42282104 1071.37994385 C119.53691448 1061.12798432 124.74055238 1050.93226031 130.10011292 1040.80633545 C133.16176001 1035.01825838 136.12788597 1029.18983161 139.02124023 1023.31567383 C142.74357954 1015.81911363 146.55180291 1008.37818239 150.47485352 1000.98486328 C153.03345347 996.15730682 155.56068902 991.31465036 158.06030273 986.45629883 C158.37093155 985.85269028 158.68156036 985.24908173 159.00160217 984.62718201 C159.3165715 984.01512405 159.63154083 983.4030661 159.95605469 982.77246094 C165.51923504 971.96247549 171.16297586 961.21047977 177.0324707 950.5625 C180.98076435 943.37365061 184.76501281 936.10645136 188.52124023 928.81567383 C193.7012637 918.76731885 199.01700773 908.80808711 204.46264648 898.90161133 C207.23678813 893.8516444 209.96168426 888.77621766 212.68139648 883.69677734 C218.20148964 873.38982318 223.83350233 863.16111664 229.62426758 853.00390625 C233.72256356 845.79122812 237.67266309 838.50632299 241.58374023 831.19067383 C246.23318006 822.49968499 250.990832 813.88878886 255.91650391 805.3515625 C259.99118281 798.27971152 263.9504488 791.14760069 267.89624023 784.00317383 C273.2042512 774.40771554 278.63158365 764.89386461 284.18530273 755.4387207 C288.30799665 748.4153842 292.36262001 741.35537763 296.38803101 734.27597046 C302.70311176 723.17177346 309.13464049 712.14620743 315.66796875 701.16870117 C319.92813394 694.01029089 324.14829343 686.83049846 328.33374023 679.62817383 C340.87976569 658.07261077 353.61869997 636.64107674 366.74389648 615.43286133 C370.45473263 609.43572351 374.11555004 603.40902711 377.77124023 597.37817383 C382.13163755 590.19637924 386.53700958 583.04587945 391.02124023 575.94067383 C391.48949219 575.19825439 391.95774414 574.45583496 392.44018555 573.69091797 C393.3364787 572.27724842 394.24138905 570.86899944 395.15551758 569.46679688 C396.12633552 567.93768052 397.04924903 566.37768922 397.93774414 564.79931641 C399.33453893 562.42969567 400.65494708 560.33739686 402.52124023 558.31567383 C406.16967773 557.43676758 406.16967773 557.43676758 409.89624023 557.75317383 C411.14147461 557.83438477 412.38670898 557.9155957 413.66967773 557.99926758 C414.61069336 558.10368164 415.55170898 558.2080957 416.52124023 558.31567383 C421.28379945 568.1136549 425.08259455 578.2949793 428.98861694 588.45483398 C431.09698971 593.93836451 433.21630388 599.41766959 435.33374023 604.89770508 C435.76679977 606.01940094 436.19985931 607.1410968 436.64604187 608.29678345 C440.96662276 619.4829539 445.33297327 630.65099885 449.70874023 641.81567383 C451.20234482 645.62812878 452.6957622 649.44065706 454.18920898 653.25317383 C454.73474678 654.64562569 454.73474678 654.64562569 455.29130554 656.06620789 C459.04376155 665.64579738 462.78305788 675.23050751 466.52124023 684.81567383 C472.17818487 699.31948605 477.8464185 713.81884726 483.52124023 728.31567383 C491.21179696 747.96240886 498.88649456 767.61529121 506.5534668 787.27124023 C509.54113928 794.93056293 512.5302478 802.58932523 515.51922607 810.24813843 C517.18662086 814.52062809 518.85392609 818.7931527 520.52124023 823.06567383 C521.18790647 824.77400733 521.85457314 826.48234066 522.52124023 828.19067383 C545.1879069 886.27400716 567.85457357 944.35734049 590.52124023 1002.44067383 C590.85125031 1003.28632401 591.18126038 1004.13197418 591.52127075 1005.00325012 C592.18783742 1006.71132847 592.85440236 1008.41940749 593.52096558 1010.12748718 C595.18914815 1014.40222731 596.85736079 1018.6769557 598.52563477 1022.95166016 C601.50757408 1030.59252201 604.48932024 1038.23345887 607.46990967 1045.87484741 C614.80993607 1064.69254156 622.15872064 1083.50676778 629.52124023 1102.31567383 C637.21172841 1121.96243575 644.88649452 1141.61529111 652.5534668 1161.27124023 C655.54113928 1168.93056293 658.5302478 1176.58932523 661.51922607 1184.24813843 C663.18662086 1188.52062809 664.85392609 1192.7931527 666.52124023 1197.06567383 C667.18790647 1198.77400733 667.85457314 1200.48234066 668.52124023 1202.19067383 C685.85457357 1246.60734049 703.1879069 1291.02400716 720.52124023 1335.44067383 C720.85125031 1336.28632401 721.18126038 1337.13197418 721.52127075 1338.00325012 C722.18783742 1339.71132847 722.85440236 1341.41940749 723.52096558 1343.12748718 C725.18914815 1347.40222731 726.85736079 1351.6769557 728.52563477 1355.95166016 C731.50757408 1363.59252201 734.48932024 1371.23345887 737.46990967 1378.87484741 C744.80993607 1397.69254156 752.15872064 1416.50676778 759.52124023 1435.31567383 C767.21172841 1454.96243575 774.88649452 1474.61529111 782.5534668 1494.27124023 C785.54113928 1501.93056293 788.5302478 1509.58932523 791.51922607 1517.24813843 C793.18662086 1521.52062809 794.85392609 1525.7931527 796.52124023 1530.06567383 C797.18790647 1531.77400733 797.85457314 1533.48234066 798.52124023 1535.19067383 C818.52124005 1586.44067336 818.52124005 1586.44067336 819.52128601 1589.0032959 C820.18779578 1590.71122401 820.85430986 1592.41915044 821.52082825 1594.1270752 C823.18993075 1598.40409462 824.85895787 1602.68114343 826.52783203 1606.95825195 C829.49869957 1614.57198992 832.47001524 1622.18555072 835.44429016 1629.79795837 C837.07448813 1633.97038129 838.70417524 1638.14300366 840.33374023 1642.31567383 C840.65990326 1643.15073456 840.98606628 1643.98579529 841.32211304 1644.84616089 C845.25804223 1654.9251196 849.18044199 1665.00918658 853.08374023 1675.10083008 C860.98888219 1695.53568829 868.93480791 1715.95177471 877.02124023 1736.31567383 C885.50504162 1757.68025943 893.83148395 1779.10360654 902.12394714 1800.5430603 C905.96671833 1810.47462082 909.83440705 1820.39639038 913.70874023 1830.31567383 C914.03369476 1831.1477536 914.35864929 1831.97983337 914.69345093 1832.83712769 C916.31850297 1836.9980719 917.94393159 1841.15886886 919.56958008 1845.31958008 C922.55551736 1852.96244082 925.53778219 1860.60673475 928.52041626 1868.25088501 C929.51492062 1870.79947868 930.50962481 1873.34799427 931.50439453 1875.89648438 C934.58023656 1883.77673574 937.65496143 1891.65741722 940.72558594 1899.53970337 C942.14855585 1903.19225358 943.57218098 1906.84454826 944.99584961 1910.49682617 C945.66284027 1912.20845125 946.3295235 1913.92019618 946.99584961 1915.63208008 C947.9305702 1918.03344474 948.86626013 1920.43442856 949.80249023 1922.83520508 C950.10131104 1923.60208649 950.40013184 1924.3689679 950.70800781 1925.15908813 C952.36998896 1929.41198474 954.05631378 1933.65402831 955.76733398 1937.88745117 C956.13822144 1938.80652756 956.50910889 1939.72560394 956.89123535 1940.67253113 C957.61051404 1942.45139939 958.33281115 1944.22905086 959.05847168 1946.00532532 C959.38069702 1946.80214218 959.70292236 1947.59895905 960.03491211 1948.41992188 C960.32233276 1949.1252153 960.60975342 1949.83050873 960.90588379 1950.55717468 C961.52124023 1952.31567383 961.52124023 1952.31567383 961.52124023 1954.31567383 C951.35629555 1954.36361111 941.21048456 1954.23057424 931.04882812 1953.94848633 C929.56880647 1953.90890588 928.08878006 1953.86950295 926.60874939 1953.83026123 C922.64277229 1953.72461525 918.67686526 1953.61652816 914.7109673 1953.50795746 C910.54705085 1953.3943963 906.3830727 1953.28314299 902.21910095 1953.17163086 C894.35721177 1952.96074391 886.49537913 1952.74782163 878.63356537 1952.53414345 C869.67333414 1952.29071212 860.71304129 1952.04958731 851.75274289 1951.80864334 C833.34217294 1951.3135289 814.93168121 1950.81555985 796.52124023 1950.31567383 C796.1845057 1949.29842319 795.84777117 1948.28117254 795.50083256 1947.23309612 C795.05114659 1945.87833737 794.6014085 1944.52359592 794.15162659 1943.16886902 C793.93062994 1942.50078956 793.7096333 1941.8327101 793.48193979 1941.14438581 C791.59581287 1935.46913552 789.52948721 1929.87749222 787.36108398 1924.30395508 C786.97896759 1923.31330048 786.5968512 1922.32264587 786.20315552 1921.30197144 C784.95812437 1918.07616199 783.70839941 1914.85219286 782.45874023 1911.62817383 C781.56896568 1909.32468726 780.67956909 1907.02105466 779.79052734 1904.71728516 C777.94803773 1899.94383438 776.10394477 1895.17100806 774.25854492 1890.39868164 C770.43314686 1880.50354848 766.62231936 1870.60281624 762.81381226 1860.70117188 C761.98960902 1858.55837024 761.16524626 1856.41562995 760.34072876 1854.27294922 C753.47218566 1836.42282035 746.64721037 1818.55627919 739.83352661 1800.68515015 C732.65038362 1781.84899389 725.40600532 1763.03702713 718.13653564 1744.23403931 C710.94908746 1725.64050603 703.81807442 1707.02611463 696.71899414 1688.39868164 C690.03120745 1670.8535777 683.29214612 1653.32885937 676.52124023 1635.81567383 C668.87121434 1616.02861356 661.27392612 1596.22223395 653.71899414 1576.39868164 C646.57946974 1557.66846438 639.37800289 1538.96278373 632.14907837 1520.26690674 C624.26136872 1499.86434063 616.43965763 1479.43736323 608.65991211 1458.9934082 C607.84683806 1456.85861325 607.03368868 1454.72384699 606.22045898 1452.58911133 C605.83227997 1451.56867737 605.44410095 1450.54824341 605.04415894 1449.49688721 C603.03473208 1444.22820963 600.99722882 1438.97235423 598.91821289 1433.73071289 C598.49836624 1432.67010651 598.07851959 1431.60950012 597.64595032 1430.51675415 C596.84457644 1428.49763908 596.03879371 1426.48026653 595.22795105 1424.4649353 C594.87203384 1423.56828156 594.51611664 1422.67162781 594.14941406 1421.74780273 C593.67632561 1420.56826523 593.67632561 1420.56826523 593.19367981 1419.36489868 C592.52124023 1417.31567383 592.52124023 1417.31567383 592.52124023 1414.31567383 C556.91461735 1416.67941294 521.43424504 1420.78210107 486.52124023 1428.31567383 C485.56040527 1428.52047363 484.59957031 1428.72527344 483.60961914 1428.9362793 C480.74424787 1429.55162558 477.88205931 1430.17951702 475.02124023 1430.81567383 C474.22161865 1430.99300049 473.42199707 1431.17032715 472.59814453 1431.35302734 C437.7917106 1439.35341695 403.89405881 1451.32362213 371.52124023 1466.31567383 C370.3984668 1466.83484375 369.27569336 1467.35401367 368.11889648 1467.88891602 C328.32642751 1486.54317295 292.29456921 1511.85405495 260.20043945 1541.75415039 C258.2931169 1543.52781062 256.37761732 1545.29246271 254.46264648 1547.05786133 C253.04431123 1548.37257021 251.62633969 1549.68767159 250.20874023 1551.00317383 C249.55083496 1551.6087915 248.89292969 1552.21440918 248.21508789 1552.83837891 C244.25981359 1556.52626986 240.62395475 1560.36865983 237.10449219 1564.47412109 C235.0565696 1566.85615348 232.91340327 1569.14338864 230.77124023 1571.44067383 C225.53969622 1577.18434188 220.7696756 1583.21839274 216.0324707 1589.37182617 C214.46628575 1591.38636003 212.8738446 1593.37764629 211.27514648 1595.36645508 C190.97739537 1620.76705791 174.18856553 1648.88439285 158.52124023 1677.31567383 C157.67553467 1678.84248779 157.67553467 1678.84248779 156.81274414 1680.40014648 C136.36243684 1717.45162891 118.36936631 1755.87402963 102.1506958 1794.95001221 C55.80951134 1906.46057416 55.80951134 1906.46057416 3.65795898 1928.66723633 C-11.63368016 1934.86412921 -25.9208215 1937.67394864 -42.47875977 1937.69067383 C-43.75493164 1937.71516602 -45.03110352 1937.7396582 -46.34594727 1937.76489258 C-57.05288371 1937.79773594 -66.43247101 1935.90637807 -75.41625977 1929.81567383 C-76.69823242 1928.96489258 -76.69823242 1928.96489258 -78.00610352 1928.09692383 C-79.67724576 1926.8930678 -81.30680754 1925.62965367 -82.89282227 1924.31567383 C-85.76285618 1922.09594971 -88.70777956 1920.50708074 -91.91625977 1918.81567383 C-113.35804361 1906.94916826 -127.23308913 1887.61209254 -136.47875977 1865.31567383 C-136.82551758 1864.51645508 -137.17227539 1863.71723633 -137.52954102 1862.89379883 C-141.2053371 1853.75398154 -142.82142374 1843.98759004 -144.47875977 1834.31567383 C-144.75127563 1832.83417847 -144.75127563 1832.83417847 -145.02929688 1831.32275391 C-146.83957212 1820.4425231 -146.83289117 1809.63198023 -146.79125977 1798.62817383 C-146.78852554 1797.13176865 -146.78852554 1797.13176865 -146.78573608 1795.60513306 C-146.73665443 1779.62705546 -145.87033718 1764.13048419 -143.47875977 1748.31567383 C-143.14562106 1745.9056704 -142.81364133 1743.49550656 -142.48266602 1741.08520508 C-137.84030765 1708.48691777 -130.58259455 1676.21386785 -122.47875977 1644.31567383 C-122.29539062 1643.58783691 -122.11202148 1642.86 -121.9230957 1642.11010742 C-120.83788068 1637.82734469 -119.67221335 1633.56921551 -118.47875977 1629.31567383 C-118.23109863 1628.42380371 -117.9834375 1627.53193359 -117.72827148 1626.61303711 C-96.67095417 1550.96447295 -68.98160774 1478.06250872 -39.68132019 1405.30525208 C-38.61056429 1402.6433413 -37.54326857 1399.98008795 -36.47875977 1397.31567383 C-37.24913574 1397.30109131 -38.01951172 1397.28650879 -38.81323242 1397.27148438 C-66.44396827 1396.69812331 -94.50546257 1395.82358662 -121.77954102 1391.06176758 C-125.22503712 1390.46937984 -128.6751339 1390.06672755 -132.15081787 1389.69367981 C-142.57512106 1388.56075468 -152.77355164 1386.66850496 -163.04125977 1384.56567383 C-163.91516357 1384.38859894 -164.78906738 1384.21152405 -165.68945312 1384.02908325 C-179.72427345 1381.18203889 -193.66410558 1378.10424946 -207.47875977 1374.31567383 C-208.38706543 1374.07059082 -209.29537109 1373.82550781 -210.23120117 1373.57299805 C-291.42732898 1351.48527108 -366.79609161 1312.97632975 -434.47875977 1263.31567383 C-435.06270508 1262.88770508 -435.64665039 1262.45973633 -436.24829102 1262.01879883 C-443.51788635 1256.67503901 -450.52935263 1251.06690732 -457.47875977 1245.31567383 C-458.39657227 1244.57317383 -459.31438477 1243.83067383 -460.26000977 1243.06567383 C-465.70084613 1238.66409834 -470.97993783 1234.13661845 -476.15454102 1229.42504883 C-478.19918311 1227.56940726 -480.26660126 1225.74811006 -482.35375977 1223.94067383 C-493.00414043 1214.62859758 -503.11235373 1204.84157528 -513.09863281 1194.82617188 C-515.30168086 1192.6177272 -517.51007445 1190.41472832 -519.71899414 1188.2121582 C-521.14574742 1186.78474459 -522.57219071 1185.35702106 -523.99829102 1183.92895508 C-524.97038261 1182.95989983 -524.97038261 1182.95989983 -525.96211243 1181.9712677 C-529.79117932 1178.12277794 -533.43732539 1174.16207855 -536.9823761 1170.0501709 C-538.89813387 1167.82956645 -540.87501502 1165.66766282 -542.85375977 1163.50317383 C-546.69804221 1159.23822074 -550.37402882 1154.86706533 -553.98266602 1150.40161133 C-555.79074132 1148.16627566 -557.6098874 1145.94379178 -559.44360352 1143.72973633 C-567.85300346 1133.54040494 -575.75101584 1123.02903411 -583.47875977 1112.31567383 C-584.2420459 1111.26259033 -584.2420459 1111.26259033 -585.02075195 1110.18823242 C-607.93650386 1078.50346669 -628.27682531 1044.79877442 -645.35327148 1009.61547852 C-646.6594822 1006.9463885 -647.9940025 1004.29209051 -649.32641602 1001.63598633 C-666.58108839 966.90724585 -680.14025917 930.37244155 -691.47875977 893.31567383 C-691.79264648 892.29062744 -692.1065332 891.26558105 -692.42993164 890.20947266 C-703.3573755 854.17566645 -709.57381697 817.77059605 -714.0925293 780.46118164 C-714.49757965 777.16240238 -714.93181622 773.86886325 -715.38867188 770.5769043 C-717.31453211 755.75608014 -717.64715107 740.90856427 -717.68188477 725.98364258 C-717.68471214 725.1394961 -717.68753952 724.29534962 -717.69045258 723.42562294 C-717.70531517 718.94259983 -717.71462134 714.45960772 -717.71899414 709.9765625 C-717.72333959 706.36154877 -717.73709647 702.74677899 -717.76000977 699.13183594 C-717.95749641 667.27451413 -716.2761553 635.9289374 -711.66625977 604.37817383 C-711.53903534 603.4867569 -711.41181091 602.59533997 -711.2807312 601.6769104 C-708.99856051 585.73337575 -706.0672982 570.02080674 -702.47875977 554.31567383 C-701.92761076 551.83138039 -701.37683898 549.34700323 -700.82641602 546.86254883 C-684.55603248 474.37733788 -656.62081351 405.03102279 -618.47875977 341.31567383 C-617.99697266 340.50549805 -617.51518555 339.69532227 -617.01879883 338.8605957 C-601.09480282 312.12094024 -583.16342634 286.42838401 -563.47875977 262.31567383 C-562.7968457 261.47133789 -562.11493164 260.62700195 -561.41235352 259.75708008 C-552.47288032 248.73865963 -543.24825394 238.01035429 -533.56079102 227.64379883 C-531.872991 225.83735848 -530.21193514 224.01454366 -528.57226562 222.1640625 C-522.65190778 215.4846671 -516.45132152 209.13433807 -510.13085938 202.83740234 C-508.41167307 201.1236015 -506.69793393 199.404483 -504.98461914 197.68481445 C-499.3168385 192.01360534 -493.5936675 186.5086162 -487.47875977 181.31567383 C-485.87107604 179.86121866 -484.26636262 178.40346488 -482.66625977 176.94067383 C-478.34264038 173.03887097 -473.89133525 169.33418884 -469.36157227 165.67504883 C-466.90432905 163.66397173 -464.49418917 161.60948304 -462.09448242 159.53051758 C-452.93457596 151.62898242 -443.21630296 144.48335154 -433.47875977 137.31567383 C-432.70838379 136.74526367 -431.93800781 136.17485352 -431.14428711 135.5871582 C-360.11172723 83.05732248 -278.23153582 46.38668639 -151.67855835 15.74447632 C-149.07211952 15.23640823 -146.46965645 14.70969341 -143.86669922 14.18408203 C-128.6449354 11.14222029 -113.39637619 8.69599227 -98.01269531 6.63037109 C-94.30867154 6.1305235 -90.60768691 5.61141077 -86.90649414 5.09106445 C-57.94857208 1.10228797 -29.18272471 -0.04394394 0 0 Z " fill="#523C30" transform="translate(1868.478759765625,683.684326171875)"/>
<path d="M0 0 C2.29458458 2.29458458 2.96982693 4.07695706 4.15698242 7.08984375 C4.79752312 8.70416039 4.79752312 8.70416039 5.45100403 10.35108948 C5.91447739 11.53460495 6.37795074 12.71812042 6.85546875 13.9375 C7.34940549 15.1878001 7.84381653 16.43791293 8.33866882 17.68785095 C9.40205478 20.37672251 10.46215553 23.06685742 11.51971436 25.75802612 C13.20164531 30.03801825 14.89054756 34.31523723 16.58056641 38.59204102 C18.62067583 43.75615751 20.65906982 48.9209445 22.69518661 54.08663654 C26.15451976 62.86282093 29.62541145 71.63435793 33.10546875 80.40234375 C33.58797592 81.61806061 34.07048309 82.83377747 34.56761169 84.08633423 C35.52732644 86.50411238 36.48709857 88.92186775 37.44692993 91.33959961 C39.82821386 97.33904078 42.20718275 103.3393994 44.5859375 109.33984375 C45.04517105 110.49825775 45.5044046 111.65667175 45.97755432 112.85018921 C51.24499309 126.13880886 56.50635822 139.42983455 61.76318359 152.72265625 C65.96050818 163.33423772 70.16796771 173.94173235 74.38648987 184.5449028 C75.97697751 188.54329238 77.56619171 192.54218835 79.15544891 196.54106712 C80.69649288 200.41810871 82.23972818 204.29426858 83.78460693 208.16978359 C84.97295496 211.15277171 86.15807255 214.13704334 87.34375 217.12109375 C87.77099365 218.19080917 88.1982373 219.2605246 88.63842773 220.36265564 C90.95054277 226.19097635 93.07943326 232.03080721 95 238 C93.69240723 238.09704224 93.69240723 238.09704224 92.35839844 238.19604492 C35.47209531 242.51178751 -20.80518944 251.80238882 -75 270 C-76.07636719 270.36061523 -77.15273437 270.72123047 -78.26171875 271.09277344 C-94.24592737 276.51007678 -109.67615477 282.94180198 -125 290 C-126.55485107 290.70962891 -126.55485107 290.70962891 -128.14111328 291.43359375 C-157.10971737 304.71443227 -185.02709799 321.11799261 -210 341 C-210.59651367 341.47469727 -211.19302734 341.94939453 -211.80761719 342.43847656 C-224.24946736 352.37094215 -236.65409649 362.3647112 -247.77734375 373.77734375 C-249.76023549 375.76023549 -251.79026883 377.57479609 -253.9375 379.375 C-262.15580071 386.43345989 -269.07985887 394.96757961 -275.84375 403.38671875 C-277.85854938 405.828568 -279.95902768 408.13009292 -282.125 410.4375 C-310.92056413 442.09754433 -333.05720839 481.38002645 -353 519 C-353.48919922 519.92200195 -353.97839844 520.84400391 -354.48242188 521.79394531 C-366.51129381 544.52992106 -377.90237402 567.53865213 -388.59570312 590.93115234 C-389.76925413 593.49574487 -390.95279958 596.0552888 -392.140625 598.61328125 C-396.97372602 609.13809289 -401.14728148 619.91743569 -405.35974121 630.70083618 C-409.34802396 640.90424514 -413.42153736 651.03024627 -418.05517578 660.96191406 C-419.06523645 663.14072193 -420.04643476 665.33136355 -421.02734375 667.5234375 C-436.73880677 702.18520905 -458.90185957 736.50944997 -495 752 C-495.630271 752.27175049 -496.26054199 752.54350098 -496.90991211 752.82348633 C-502.11449662 754.92782715 -507.26367482 755.93001492 -512.8125 756.6875 C-514.17097046 756.87421265 -514.17097046 756.87421265 -515.55688477 757.06469727 C-521.84674667 757.86411243 -528.09773497 758.34059993 -534.4375 758.4375 C-535.21134033 758.45965576 -535.98518066 758.48181152 -536.7824707 758.50463867 C-542.15412265 758.48390328 -544.51694759 757.08545813 -549 754 C-554.2693343 751.94926527 -559.6918845 750.31521804 -565.08398438 748.61914062 C-584.18250858 742.33425193 -598.59729279 729.30326142 -607.78515625 711.55078125 C-613.53357296 698.65727369 -617.59783149 684.89896679 -620 671 C-620.13680176 670.26104492 -620.27360352 669.52208984 -620.41455078 668.76074219 C-623.04503409 654.03359438 -623.27064214 639.41479775 -623.25 624.5 C-623.24922455 623.55719177 -623.2484491 622.61438354 -623.24765015 621.64300537 C-623.17075688 589.34151376 -623.17075688 589.34151376 -621 585 C-620.69844206 583.24146231 -620.44002426 581.47544035 -620.203125 579.70703125 C-620.05198242 578.61463135 -619.90083984 577.52223145 -619.74511719 576.39672852 C-619.58172852 575.21393311 -619.41833984 574.0311377 -619.25 572.8125 C-617.58073469 561.20317175 -615.40585002 549.8329297 -612.77441406 538.40869141 C-611.87463281 534.44817884 -611.01003291 530.48067731 -610.1484375 526.51171875 C-606.16842638 508.22684687 -601.93265954 490.05608214 -597 472 C-596.64953613 470.71222656 -596.64953613 470.71222656 -596.29199219 469.3984375 C-591.47322999 451.82494872 -586.00989954 434.42582261 -580.62438965 417.01959229 C-580.06874099 415.22234316 -579.51517996 413.42444891 -578.96191406 411.62646484 C-564.07199037 363.38783906 -545.6622362 316.35397128 -526.98931885 269.484375 C-526.02869624 267.07206193 -525.06948183 264.65919452 -524.11083984 262.24609375 C-522.6890372 258.66723925 -521.26531304 255.08915776 -519.8394165 251.51193237 C-519.32786665 250.22835578 -518.81674702 248.94460763 -518.30609131 247.66067505 C-517.61340809 245.92020327 -516.91810323 244.18077554 -516.22265625 242.44140625 C-515.83859619 241.47920166 -515.45453613 240.51699707 -515.05883789 239.52563477 C-514.12373171 237.29513594 -513.11325379 235.14601999 -512 233 C-510.78944946 232.97812622 -510.78944946 232.97812622 -509.55444336 232.95581055 C-456.57868293 231.89935644 -404.3213664 223.96790741 -353.03271484 210.77832031 C-349.10961195 209.77148953 -345.18046227 208.79009368 -341.25 207.8125 C-339.55568848 207.38590088 -339.55568848 207.38590088 -337.82714844 206.95068359 C-335.38348222 206.34366419 -332.93605396 205.75146764 -330.48413086 205.17871094 C-319.52524091 202.57161679 -308.95022109 199.12602091 -298.3125 195.4375 C-297.41948181 195.12975647 -296.52646362 194.82201294 -295.60638428 194.50494385 C-270.2409836 185.76014141 -245.36169915 176.28786843 -221 165 C-219.95924316 164.51950195 -218.91848633 164.03900391 -217.84619141 163.54394531 C-174.68619519 143.51336733 -133.80689829 118.90865309 -96 90 C-95.24332031 89.42588379 -94.48664062 88.85176758 -93.70703125 88.26025391 C-83.75619938 80.69920515 -74.16093879 72.83489952 -64.79248047 64.56591797 C-63.00441815 63.00385971 -61.19668743 61.46873494 -59.37890625 59.94140625 C-52.5602605 54.20598397 -46.11266208 48.29074743 -39.9140625 41.88671875 C-37.73930517 39.67356528 -35.45666217 37.64088725 -33.1015625 35.62109375 C-29.04168092 32.10742114 -25.38270863 28.32329989 -21.75 24.375 C-20.79154175 23.34209839 -20.79154175 23.34209839 -19.8137207 22.28833008 C-18.50835245 20.88051643 -17.20470659 19.47110366 -15.90283203 18.06005859 C-14.08580633 16.09289631 -12.26113724 14.13316978 -10.43359375 12.17578125 C-9.35133834 11.01322947 -8.26929524 9.85048 -7.1875 8.6875 C-6.69024414 8.15495605 -6.19298828 7.62241211 -5.68066406 7.07373047 C-3.56884048 4.79174235 -1.73013177 2.59519765 0 0 Z " fill="#FEFEFE" transform="translate(2360,1846)"/>
<path d="M0 0 C3.06634002 2.56391701 4.10424834 5.31804713 5.49609375 9.01953125 C5.96523193 10.25203613 6.43437012 11.48454102 6.91772461 12.75439453 C7.28775101 13.74273285 7.28775101 13.74273285 7.66525269 14.7510376 C8.99962795 18.31306284 10.3617841 21.86450315 11.71875 25.41796875 C11.99641708 26.14745728 12.27408417 26.8769458 12.56016541 27.62854004 C15.11186203 34.32405459 17.7606884 40.9785499 20.4375 47.625 C21.43547997 50.10914269 22.43305477 52.59344203 23.4296875 55.078125 C23.69889008 55.7492482 23.96809265 56.4203714 24.24545288 57.11183167 C28.5493376 67.85365456 32.80177846 78.61600609 37.0625 89.375 C37.51531342 90.51827759 37.96812683 91.66155518 38.43466187 92.83947754 C43.19163653 104.8504784 47.94585605 116.86256933 52.69921875 128.875 C54.21611758 132.70834451 55.7330498 136.54167582 57.25 140.375 C57.62869232 141.33199799 58.00738464 142.28899597 58.39755249 143.2749939 C65.37902272 160.91686881 72.37548336 178.55277998 79.375 196.1875 C89.2899435 221.16740382 99.1957014 246.1509272 109.09268188 271.13795471 C111.83663535 278.06501527 114.58246228 284.99133081 117.32940674 291.91720581 C119.25610381 296.775058 121.1823222 301.63309993 123.10852051 306.4911499 C124.02259161 308.79613427 124.93689116 311.10102807 125.85144043 313.40582275 C126.28428345 314.49667175 126.71712646 315.58752075 127.16308594 316.71142578 C127.58201111 317.76717804 128.00093628 318.8229303 128.43255615 319.91067505 C129.6098942 322.88297062 130.7818961 325.8573242 131.953125 328.83203125 C133.18810483 331.96562167 134.44288252 335.088519 135.734375 338.19921875 C136.20359375 339.35035156 136.6728125 340.50148438 137.15625 341.6875 C137.74116211 343.08548828 137.74116211 343.08548828 138.33789062 344.51171875 C139.67454926 349.53503175 137.4585309 353.55865459 135.41015625 358.12890625 C134.87841797 359.3185498 134.34667969 360.50819336 133.79882812 361.73388672 C133.22067003 363.01037121 132.64187968 364.2865695 132.0625 365.5625 C131.76899658 366.21204651 131.47549316 366.86159302 131.1730957 367.53082275 C115.6740249 401.8072897 97.26996894 434.63186053 75 465 C74.24589844 466.03769531 73.49179688 467.07539062 72.71484375 468.14453125 C64.35715639 479.47518907 55.48214317 490.47765401 45.96484375 500.85546875 C44.17061569 502.81378128 42.42304764 504.80226137 40.6875 506.8125 C26.33681159 523.18993711 10.78194573 538.12126007 -6 552 C-6.58958496 552.48919922 -7.17916992 552.97839844 -7.78662109 553.48242188 C-28.97836297 570.98196496 -51.98764429 585.6993366 -76 599 C-76.74781738 599.41523926 -77.49563477 599.83047852 -78.26611328 600.25830078 C-96.83414883 610.50433816 -116.2284975 618.50280569 -136.07958984 625.91015625 C-137.8526237 626.57182011 -139.6242094 627.2374059 -141.39306641 627.91015625 C-154.63799415 632.94657424 -168.28629053 636.48178223 -182 640 C-183.25594971 640.32766357 -184.51189941 640.65532715 -185.8059082 640.99291992 C-195.15949216 643.40918561 -204.54092876 645.42097216 -214.0625 647.0625 C-214.79867554 647.1897345 -215.53485107 647.31696899 -216.29333496 647.44805908 C-253.65855411 653.80143788 -291.23673375 653.82953074 -329 652 C-328.40069681 646.65127195 -326.60034548 642.31862609 -324.421875 637.46484375 C-324.05921539 636.64231613 -323.69655579 635.81978851 -323.32290649 634.97233582 C-322.13862778 632.29103814 -320.94452144 629.61424829 -319.75 626.9375 C-318.92217182 625.06972775 -318.0948649 623.20172438 -317.26806641 621.33349609 C-315.22207223 616.71540782 -313.16773621 612.10109334 -311.10974121 607.48834229 C-310.11611768 605.2603675 -309.12435008 603.03158374 -308.13378906 600.80224609 C-295.06594017 571.39723101 -281.65241623 542.13796685 -268 513 C-267.68562988 512.3287207 -267.37125977 511.65744141 -267.04736328 510.96582031 C-246.96301589 468.09937615 -225.9066989 425.72044139 -204.74937439 383.37625885 C-203.19964209 380.27430369 -201.65049857 377.17205505 -200.10144043 374.06976318 C-197.61774869 369.0964139 -195.13162816 364.12428536 -192.6437397 359.15303421 C-191.72050603 357.30763344 -190.79789539 355.46192082 -189.87598991 353.61585617 C-184.46856948 342.79005286 -178.95701562 332.02890931 -173.28788757 321.33766174 C-170.91381245 316.85413461 -168.59609387 312.34253296 -166.2890625 307.82421875 C-165.88584683 307.03462422 -165.48263117 306.2450297 -165.06719685 305.43150806 C-164.31563851 303.95916842 -163.56422372 302.48675551 -162.81292725 301.01428223 C-156.85553864 289.34559967 -150.84729512 277.72320492 -144.49658203 266.26245117 C-139.99476336 258.09482134 -135.74984618 249.8004499 -131.5 241.5 C-126.21429835 231.17754774 -120.84772221 220.9175167 -115.24609375 210.76171875 C-111.736493 204.3885152 -108.34701684 197.95994253 -105 191.5 C-100.64622817 183.10379304 -96.18793113 174.77331914 -91.640625 166.48046875 C-87.72505421 159.33911684 -83.8548165 152.17431507 -80 145 C-75.18594734 136.04495411 -70.34485325 127.10550801 -65.46655273 118.18530273 C-62.90471161 113.4989873 -60.35337268 108.80741359 -57.8203125 104.10546875 C-52.51653679 94.2641513 -47.16052321 84.46314902 -41.625 74.75 C-36.77594578 66.24006066 -32.09991699 57.64644279 -27.5 49 C-18.69872587 32.46118657 -9.53714081 16.12643809 0 0 Z " fill="#FEFEFE" transform="translate(2186,1408)"/>
</svg>
